<mxfile host="app.diagrams.net" modified="2024-05-02T03:25:59.342Z" agent="Mozilla/5.0 (Windows NT 10.0; Win64; x64) AppleWebKit/537.36 (KHTML, like Gecko) Chrome/124.0.0.0 Safari/537.36" etag="RaQRC8xeqDe0uEgu-2_4" version="24.3.1" type="device">
  <diagram name="PÃ¡gina-1" id="ReMdOiOgR4uJ4forSryw">
    <mxGraphModel dx="1687" dy="878" grid="1" gridSize="10" guides="1" tooltips="1" connect="1" arrows="1" fold="1" page="1" pageScale="1" pageWidth="827" pageHeight="1169" math="0" shadow="0">
      <root>
        <mxCell id="0" />
        <mxCell id="1" parent="0" />
        <mxCell id="TtGc4zHFIrU9EOxlKX2Q-52" value="" style="rounded=0;whiteSpace=wrap;html=1;" vertex="1" parent="1">
          <mxGeometry x="90" y="36" width="600" height="804" as="geometry" />
        </mxCell>
        <mxCell id="TtGc4zHFIrU9EOxlKX2Q-45" value="" style="rounded=0;whiteSpace=wrap;html=1;" vertex="1" parent="1">
          <mxGeometry x="350" y="610" width="300" height="190" as="geometry" />
        </mxCell>
        <mxCell id="TtGc4zHFIrU9EOxlKX2Q-31" value="" style="rounded=0;whiteSpace=wrap;html=1;" vertex="1" parent="1">
          <mxGeometry x="350" y="90" width="300" height="500" as="geometry" />
        </mxCell>
        <mxCell id="TtGc4zHFIrU9EOxlKX2Q-5" value="" style="rounded=0;whiteSpace=wrap;html=1;" vertex="1" parent="1">
          <mxGeometry x="410" y="160" width="190" height="120" as="geometry" />
        </mxCell>
        <mxCell id="TtGc4zHFIrU9EOxlKX2Q-4" value="" style="rounded=0;whiteSpace=wrap;html=1;" vertex="1" parent="1">
          <mxGeometry x="474" y="171" width="120" height="81.5" as="geometry" />
        </mxCell>
        <mxCell id="TtGc4zHFIrU9EOxlKX2Q-2" value="backend-challenge" style="image;sketch=0;aspect=fixed;html=1;points=[];align=center;fontSize=12;image=img/lib/mscae/Docker.svg;" vertex="1" parent="1">
          <mxGeometry x="509" y="178" width="50" height="41" as="geometry" />
        </mxCell>
        <mxCell id="TtGc4zHFIrU9EOxlKX2Q-6" style="edgeStyle=orthogonalEdgeStyle;rounded=0;orthogonalLoop=1;jettySize=auto;html=1;exitX=0.5;exitY=1;exitDx=0;exitDy=0;" edge="1" parent="1" source="TtGc4zHFIrU9EOxlKX2Q-5" target="TtGc4zHFIrU9EOxlKX2Q-5">
          <mxGeometry relative="1" as="geometry" />
        </mxCell>
        <mxCell id="TtGc4zHFIrU9EOxlKX2Q-9" value="&lt;font style=&quot;font-size: 9px;&quot;&gt;label:backend-challenge&lt;/font&gt;" style="text;html=1;align=center;verticalAlign=middle;whiteSpace=wrap;rounded=0;" vertex="1" parent="1">
          <mxGeometry x="420" y="252.5" width="150" height="30" as="geometry" />
        </mxCell>
        <mxCell id="TtGc4zHFIrU9EOxlKX2Q-10" value="" style="rounded=0;whiteSpace=wrap;html=1;" vertex="1" parent="1">
          <mxGeometry x="410" y="300" width="190" height="120" as="geometry" />
        </mxCell>
        <mxCell id="TtGc4zHFIrU9EOxlKX2Q-11" value="" style="rounded=0;whiteSpace=wrap;html=1;" vertex="1" parent="1">
          <mxGeometry x="474" y="311" width="120" height="81.5" as="geometry" />
        </mxCell>
        <mxCell id="TtGc4zHFIrU9EOxlKX2Q-13" value="backend-challenge" style="image;sketch=0;aspect=fixed;html=1;points=[];align=center;fontSize=12;image=img/lib/mscae/Docker.svg;" vertex="1" parent="1">
          <mxGeometry x="509" y="318" width="50" height="41" as="geometry" />
        </mxCell>
        <mxCell id="TtGc4zHFIrU9EOxlKX2Q-14" style="edgeStyle=orthogonalEdgeStyle;rounded=0;orthogonalLoop=1;jettySize=auto;html=1;exitX=0.5;exitY=1;exitDx=0;exitDy=0;" edge="1" parent="1" source="TtGc4zHFIrU9EOxlKX2Q-10" target="TtGc4zHFIrU9EOxlKX2Q-10">
          <mxGeometry relative="1" as="geometry" />
        </mxCell>
        <mxCell id="TtGc4zHFIrU9EOxlKX2Q-15" value="&lt;font style=&quot;font-size: 9px;&quot;&gt;label:backend-challenge&lt;/font&gt;" style="text;html=1;align=center;verticalAlign=middle;whiteSpace=wrap;rounded=0;" vertex="1" parent="1">
          <mxGeometry x="420" y="392.5" width="150" height="30" as="geometry" />
        </mxCell>
        <mxCell id="TtGc4zHFIrU9EOxlKX2Q-16" value="" style="rounded=0;whiteSpace=wrap;html=1;" vertex="1" parent="1">
          <mxGeometry x="410" y="440" width="190" height="120" as="geometry" />
        </mxCell>
        <mxCell id="TtGc4zHFIrU9EOxlKX2Q-17" value="" style="rounded=0;whiteSpace=wrap;html=1;" vertex="1" parent="1">
          <mxGeometry x="474" y="451" width="120" height="81.5" as="geometry" />
        </mxCell>
        <mxCell id="TtGc4zHFIrU9EOxlKX2Q-19" value="backend-challenge" style="image;sketch=0;aspect=fixed;html=1;points=[];align=center;fontSize=12;image=img/lib/mscae/Docker.svg;" vertex="1" parent="1">
          <mxGeometry x="509" y="458" width="50" height="41" as="geometry" />
        </mxCell>
        <mxCell id="TtGc4zHFIrU9EOxlKX2Q-20" style="edgeStyle=orthogonalEdgeStyle;rounded=0;orthogonalLoop=1;jettySize=auto;html=1;exitX=0.5;exitY=1;exitDx=0;exitDy=0;" edge="1" parent="1" source="TtGc4zHFIrU9EOxlKX2Q-16" target="TtGc4zHFIrU9EOxlKX2Q-16">
          <mxGeometry relative="1" as="geometry" />
        </mxCell>
        <mxCell id="TtGc4zHFIrU9EOxlKX2Q-21" value="&lt;font style=&quot;font-size: 9px;&quot;&gt;label:backend-challenge&lt;/font&gt;" style="text;html=1;align=center;verticalAlign=middle;whiteSpace=wrap;rounded=0;" vertex="1" parent="1">
          <mxGeometry x="420" y="532.5" width="150" height="30" as="geometry" />
        </mxCell>
        <mxCell id="TtGc4zHFIrU9EOxlKX2Q-22" value="" style="aspect=fixed;sketch=0;html=1;dashed=0;whitespace=wrap;fillColor=#2875E2;strokeColor=#ffffff;points=[[0.005,0.63,0],[0.1,0.2,0],[0.9,0.2,0],[0.5,0,0],[0.995,0.63,0],[0.72,0.99,0],[0.5,1,0],[0.28,0.99,0]];shape=mxgraph.kubernetes.icon2;kubernetesLabel=1;prIcon=pod" vertex="1" parent="1">
          <mxGeometry x="420" y="171" width="50" height="48" as="geometry" />
        </mxCell>
        <mxCell id="TtGc4zHFIrU9EOxlKX2Q-23" value="" style="aspect=fixed;sketch=0;html=1;dashed=0;whitespace=wrap;fillColor=#2875E2;strokeColor=#ffffff;points=[[0.005,0.63,0],[0.1,0.2,0],[0.9,0.2,0],[0.5,0,0],[0.995,0.63,0],[0.72,0.99,0],[0.5,1,0],[0.28,0.99,0]];shape=mxgraph.kubernetes.icon2;kubernetesLabel=1;prIcon=pod" vertex="1" parent="1">
          <mxGeometry x="420" y="311" width="50" height="48" as="geometry" />
        </mxCell>
        <mxCell id="TtGc4zHFIrU9EOxlKX2Q-24" value="" style="aspect=fixed;sketch=0;html=1;dashed=0;whitespace=wrap;fillColor=#2875E2;strokeColor=#ffffff;points=[[0.005,0.63,0],[0.1,0.2,0],[0.9,0.2,0],[0.5,0,0],[0.995,0.63,0],[0.72,0.99,0],[0.5,1,0],[0.28,0.99,0]];shape=mxgraph.kubernetes.icon2;kubernetesLabel=1;prIcon=pod" vertex="1" parent="1">
          <mxGeometry x="420" y="451" width="50" height="48" as="geometry" />
        </mxCell>
        <mxCell id="TtGc4zHFIrU9EOxlKX2Q-27" style="rounded=0;orthogonalLoop=1;jettySize=auto;html=1;entryX=0;entryY=0.5;entryDx=0;entryDy=0;" edge="1" parent="1" source="TtGc4zHFIrU9EOxlKX2Q-26" target="TtGc4zHFIrU9EOxlKX2Q-5">
          <mxGeometry relative="1" as="geometry" />
        </mxCell>
        <mxCell id="TtGc4zHFIrU9EOxlKX2Q-28" style="edgeStyle=orthogonalEdgeStyle;rounded=0;orthogonalLoop=1;jettySize=auto;html=1;entryX=0;entryY=0.5;entryDx=0;entryDy=0;" edge="1" parent="1">
          <mxGeometry relative="1" as="geometry">
            <mxPoint x="280" y="358.52" as="sourcePoint" />
            <mxPoint x="410" y="358.52" as="targetPoint" />
            <Array as="points">
              <mxPoint x="310" y="358.52" />
              <mxPoint x="310" y="358.52" />
            </Array>
          </mxGeometry>
        </mxCell>
        <mxCell id="TtGc4zHFIrU9EOxlKX2Q-29" style="rounded=0;orthogonalLoop=1;jettySize=auto;html=1;entryX=0;entryY=0.75;entryDx=0;entryDy=0;" edge="1" parent="1" source="TtGc4zHFIrU9EOxlKX2Q-26" target="TtGc4zHFIrU9EOxlKX2Q-16">
          <mxGeometry relative="1" as="geometry" />
        </mxCell>
        <mxCell id="TtGc4zHFIrU9EOxlKX2Q-26" value="&lt;div&gt;&lt;br&gt;&lt;/div&gt;" style="aspect=fixed;sketch=0;html=1;dashed=0;whitespace=wrap;fillColor=#2875E2;strokeColor=#ffffff;points=[[0.005,0.63,0],[0.1,0.2,0],[0.9,0.2,0],[0.5,0,0],[0.995,0.63,0],[0.72,0.99,0],[0.5,1,0],[0.28,0.99,0]];shape=mxgraph.kubernetes.icon2;prIcon=svc" vertex="1" parent="1">
          <mxGeometry x="220" y="327.75" width="60" height="57.6" as="geometry" />
        </mxCell>
        <mxCell id="TtGc4zHFIrU9EOxlKX2Q-30" value="backend-challenge-service" style="text;html=1;align=center;verticalAlign=middle;whiteSpace=wrap;rounded=0;" vertex="1" parent="1">
          <mxGeometry x="175" y="297.75" width="150" height="30" as="geometry" />
        </mxCell>
        <mxCell id="TtGc4zHFIrU9EOxlKX2Q-32" value="" style="aspect=fixed;sketch=0;html=1;dashed=0;whitespace=wrap;fillColor=#2875E2;strokeColor=#ffffff;points=[[0.005,0.63,0],[0.1,0.2,0],[0.9,0.2,0],[0.5,0,0],[0.995,0.63,0],[0.72,0.99,0],[0.5,1,0],[0.28,0.99,0]];shape=mxgraph.kubernetes.icon2;prIcon=deploy" vertex="1" parent="1">
          <mxGeometry x="360" y="100" width="50" height="48" as="geometry" />
        </mxCell>
        <mxCell id="TtGc4zHFIrU9EOxlKX2Q-33" value="deployment" style="text;html=1;align=center;verticalAlign=middle;whiteSpace=wrap;rounded=0;" vertex="1" parent="1">
          <mxGeometry x="414" y="109" width="60" height="30" as="geometry" />
        </mxCell>
        <mxCell id="TtGc4zHFIrU9EOxlKX2Q-38" value="" style="image;sketch=0;aspect=fixed;html=1;points=[];align=center;fontSize=12;image=img/lib/mscae/Kubernetes.svg;" vertex="1" parent="1">
          <mxGeometry x="110" y="52" width="50" height="48" as="geometry" />
        </mxCell>
        <mxCell id="TtGc4zHFIrU9EOxlKX2Q-40" value="" style="rounded=0;whiteSpace=wrap;html=1;" vertex="1" parent="1">
          <mxGeometry x="414" y="660" width="190" height="120" as="geometry" />
        </mxCell>
        <mxCell id="TtGc4zHFIrU9EOxlKX2Q-41" value="" style="rounded=0;whiteSpace=wrap;html=1;" vertex="1" parent="1">
          <mxGeometry x="478" y="671" width="120" height="81.5" as="geometry" />
        </mxCell>
        <mxCell id="TtGc4zHFIrU9EOxlKX2Q-42" value="prometheus" style="image;sketch=0;aspect=fixed;html=1;points=[];align=center;fontSize=12;image=img/lib/mscae/Docker.svg;" vertex="1" parent="1">
          <mxGeometry x="513" y="678" width="50" height="41" as="geometry" />
        </mxCell>
        <mxCell id="TtGc4zHFIrU9EOxlKX2Q-43" value="&lt;font style=&quot;font-size: 9px;&quot;&gt;label:backend-challenge&lt;/font&gt;" style="text;html=1;align=center;verticalAlign=middle;whiteSpace=wrap;rounded=0;" vertex="1" parent="1">
          <mxGeometry x="424" y="752.5" width="150" height="30" as="geometry" />
        </mxCell>
        <mxCell id="TtGc4zHFIrU9EOxlKX2Q-44" value="" style="aspect=fixed;sketch=0;html=1;dashed=0;whitespace=wrap;fillColor=#2875E2;strokeColor=#ffffff;points=[[0.005,0.63,0],[0.1,0.2,0],[0.9,0.2,0],[0.5,0,0],[0.995,0.63,0],[0.72,0.99,0],[0.5,1,0],[0.28,0.99,0]];shape=mxgraph.kubernetes.icon2;kubernetesLabel=1;prIcon=pod" vertex="1" parent="1">
          <mxGeometry x="424" y="671" width="50" height="48" as="geometry" />
        </mxCell>
        <mxCell id="TtGc4zHFIrU9EOxlKX2Q-46" value="" style="aspect=fixed;sketch=0;html=1;dashed=0;whitespace=wrap;fillColor=#2875E2;strokeColor=#ffffff;points=[[0.005,0.63,0],[0.1,0.2,0],[0.9,0.2,0],[0.5,0,0],[0.995,0.63,0],[0.72,0.99,0],[0.5,1,0],[0.28,0.99,0]];shape=mxgraph.kubernetes.icon2;prIcon=deploy" vertex="1" parent="1">
          <mxGeometry x="360" y="612" width="50" height="48" as="geometry" />
        </mxCell>
        <mxCell id="TtGc4zHFIrU9EOxlKX2Q-47" value="deployment" style="text;html=1;align=center;verticalAlign=middle;whiteSpace=wrap;rounded=0;" vertex="1" parent="1">
          <mxGeometry x="414" y="621" width="60" height="30" as="geometry" />
        </mxCell>
        <mxCell id="TtGc4zHFIrU9EOxlKX2Q-50" style="edgeStyle=orthogonalEdgeStyle;rounded=0;orthogonalLoop=1;jettySize=auto;html=1;" edge="1" parent="1" source="TtGc4zHFIrU9EOxlKX2Q-49" target="TtGc4zHFIrU9EOxlKX2Q-40">
          <mxGeometry relative="1" as="geometry" />
        </mxCell>
        <mxCell id="TtGc4zHFIrU9EOxlKX2Q-49" value="&lt;div&gt;&lt;br&gt;&lt;/div&gt;" style="aspect=fixed;sketch=0;html=1;dashed=0;whitespace=wrap;fillColor=#2875E2;strokeColor=#ffffff;points=[[0.005,0.63,0],[0.1,0.2,0],[0.9,0.2,0],[0.5,0,0],[0.995,0.63,0],[0.72,0.99,0],[0.5,1,0],[0.28,0.99,0]];shape=mxgraph.kubernetes.icon2;prIcon=svc" vertex="1" parent="1">
          <mxGeometry x="210" y="691.2" width="60" height="57.6" as="geometry" />
        </mxCell>
        <mxCell id="TtGc4zHFIrU9EOxlKX2Q-51" value="prometheus-service" style="text;html=1;align=center;verticalAlign=middle;whiteSpace=wrap;rounded=0;" vertex="1" parent="1">
          <mxGeometry x="175" y="661.2" width="150" height="30" as="geometry" />
        </mxCell>
      </root>
    </mxGraphModel>
  </diagram>
</mxfile>
